{
    "asset" : {
        "generator" : "Khronos glTF Blender I/O v1.4.40",
        "version" : "2.0"
    },
    "scene" : 0,
    "scenes" : [
        {
            "name" : "Scene",
            "nodes" : [
                0,
                1,
                2
            ]
        }
    ],
    "nodes" : [
        {
            "name" : "Light",
            "rotation" : [
                0.16907575726509094,
                0.7558803558349609,
                -0.27217137813568115,
                0.570947527885437
            ],
            "translation" : [
                4.076245307922363,
                5.903861999511719,
                -1.0054539442062378
            ]
        },
        {
            "name" : "Camera",
            "rotation" : [
                0.483536034822464,
                0.33687159419059753,
                -0.20870360732078552,
                0.7804827094078064
            ],
            "translation" : [
                7.358891487121582,
                4.958309173583984,
                6.925790786743164
            ]
        },
        {
            "mesh" : 0,
            "name" : "path134",
            "rotation" : [
                0.7071068286895752,
                0,
                0,
                0.7071068286895752
            ],
            "scale" : [
                0.5,
                0.5,
                0.5
            ],
            "translation" : [
                -0.05000000447034836,
                -0.019999999552965164,
                0.004999999888241291
            ]
        }
    ],
    "materials" : [
        {
            "doubleSided" : true,
            "name" : "SVGMat.016",
            "pbrMetallicRoughness" : {
                "baseColorFactor" : [
                    0.07818742096424103,
                    0.07818742096424103,
                    0.07818742096424103,
                    1
                ],
                "metallicFactor" : 0,
                "roughnessFactor" : 0.4000000059604645
            }
        },
        {
            "doubleSided" : true,
            "name" : "SVGMat.017",
            "pbrMetallicRoughness" : {
                "baseColorFactor" : [
                    0.07818742096424103,
                    0.07818742096424103,
                    0.07818742096424103,
                    1
                ],
                "metallicFactor" : 0,
                "roughnessFactor" : 0.4000000059604645
            }
        },
        {
            "doubleSided" : true,
            "name" : "SVGMat.018",
            "pbrMetallicRoughness" : {
                "baseColorFactor" : [
                    0.07818742096424103,
                    0.07818742096424103,
                    0.07818742096424103,
                    1
                ],
                "metallicFactor" : 0,
                "roughnessFactor" : 0.4000000059604645
            }
        },
        {
            "doubleSided" : true,
            "name" : "SVGMat.019",
            "pbrMetallicRoughness" : {
                "baseColorFactor" : [
                    0.07818742096424103,
                    0.07818742096424103,
                    0.07818742096424103,
                    1
                ],
                "metallicFactor" : 0,
                "roughnessFactor" : 0.4000000059604645
            }
        },
        {
            "doubleSided" : true,
            "name" : "SVGMat.020",
            "pbrMetallicRoughness" : {
                "baseColorFactor" : [
                    0.07818742096424103,
                    0.07818742096424103,
                    0.07818742096424103,
                    1
                ],
                "metallicFactor" : 0,
                "roughnessFactor" : 0.4000000059604645
            }
        },
        {
            "doubleSided" : true,
            "name" : "SVGMat.021",
            "pbrMetallicRoughness" : {
                "baseColorFactor" : [
                    0.028426039963960648,
                    0.028426039963960648,
                    0.028426039963960648,
                    1
                ],
                "metallicFactor" : 0,
                "roughnessFactor" : 0.4000000059604645
            }
        },
        {
            "doubleSided" : true,
            "name" : "SVGMat.022",
            "pbrMetallicRoughness" : {
                "baseColorFactor" : [
                    0,
                    0,
                    0,
                    1
                ],
                "metallicFactor" : 0,
                "roughnessFactor" : 0.4000000059604645
            }
        }
    ],
    "meshes" : [
        {
            "name" : "path134.001",
            "primitives" : [
                {
                    "attributes" : {
                        "POSITION" : 0,
                        "NORMAL" : 1,
                        "TEXCOORD_0" : 2
                    },
                    "indices" : 3,
                    "material" : 0
                },
                {
                    "attributes" : {
                        "POSITION" : 4,
                        "NORMAL" : 5,
                        "TEXCOORD_0" : 6
                    },
                    "indices" : 7,
                    "material" : 1
                },
                {
                    "attributes" : {
                        "POSITION" : 8,
                        "NORMAL" : 9,
                        "TEXCOORD_0" : 10
                    },
                    "indices" : 11,
                    "material" : 2
                },
                {
                    "attributes" : {
                        "POSITION" : 12,
                        "NORMAL" : 13,
                        "TEXCOORD_0" : 14
                    },
                    "indices" : 15,
                    "material" : 3
                },
                {
                    "attributes" : {
                        "POSITION" : 16,
                        "NORMAL" : 17,
                        "TEXCOORD_0" : 18
                    },
                    "indices" : 19,
                    "material" : 4
                },
                {
                    "attributes" : {
                        "POSITION" : 20,
                        "NORMAL" : 21,
                        "TEXCOORD_0" : 22
                    },
                    "indices" : 23,
                    "material" : 5
                },
                {
                    "attributes" : {
                        "POSITION" : 24,
                        "NORMAL" : 25,
                        "TEXCOORD_0" : 26
                    },
                    "indices" : 27,
                    "material" : 6
                }
            ]
        }
    ],
    "accessors" : [
        {
            "bufferView" : 0,
            "componentType" : 5126,
            "count" : 2888,
            "max" : [
                0.1971675157546997,
                0,
                -0.004413723945617676
            ],
            "min" : [
                0.002413615584373474,
                -0.019999999552965164,
                -0.0714506283402443
            ],
            "type" : "VEC3"
        },
        {
            "bufferView" : 1,
            "componentType" : 5126,
            "count" : 2888,
            "type" : "VEC3"
        },
        {
            "bufferView" : 2,
            "componentType" : 5126,
            "count" : 2888,
            "type" : "VEC2"
        },
        {
            "bufferView" : 3,
            "componentType" : 5123,
            "count" : 5718,
            "type" : "SCALAR"
        },
        {
            "bufferView" : 4,
            "componentType" : 5126,
            "count" : 2851,
            "max" : [
                0.19734860956668854,
                0,
                -0.004413723945617676
            ],
            "min" : [
                0.002413615584373474,
                -0.019999999552965164,
                -0.07131539285182953
            ],
            "type" : "VEC3"
        },
        {
            "bufferView" : 5,
            "componentType" : 5126,
            "count" : 2851,
            "type" : "VEC3"
        },
        {
            "bufferView" : 6,
            "componentType" : 5126,
            "count" : 2851,
            "type" : "VEC2"
        },
        {
            "bufferView" : 7,
            "componentType" : 5123,
            "count" : 5610,
            "type" : "SCALAR"
        },
        {
            "bufferView" : 8,
            "componentType" : 5126,
            "count" : 2872,
            "max" : [
                0.19699083268642426,
                0,
                -0.004413619637489319
            ],
            "min" : [
                0.002368970774114132,
                -0.019999999552965164,
                -0.07097968459129333
            ],
            "type" : "VEC3"
        },
        {
            "bufferView" : 9,
            "componentType" : 5126,
            "count" : 2872,
            "type" : "VEC3"
        },
        {
            "bufferView" : 10,
            "componentType" : 5126,
            "count" : 2872,
            "type" : "VEC2"
        },
        {
            "bufferView" : 11,
            "componentType" : 5123,
            "count" : 5670,
            "type" : "SCALAR"
        },
        {
            "bufferView" : 12,
            "componentType" : 5126,
            "count" : 2870,
            "max" : [
                0.19699083268642426,
                0,
                -0.0044136643409729
            ],
            "min" : [
                0.0023689717054367065,
                -0.019999999552965164,
                -0.07060696184635162
            ],
            "type" : "VEC3"
        },
        {
            "bufferView" : 13,
            "componentType" : 5126,
            "count" : 2870,
            "type" : "VEC3"
        },
        {
            "bufferView" : 14,
            "componentType" : 5126,
            "count" : 2870,
            "type" : "VEC2"
        },
        {
            "bufferView" : 15,
            "componentType" : 5123,
            "count" : 5622,
            "type" : "SCALAR"
        },
        {
            "bufferView" : 16,
            "componentType" : 5126,
            "count" : 2906,
            "max" : [
                0.19699083268642426,
                0,
                -0.004413783550262451
            ],
            "min" : [
                0.002413615584373474,
                -0.019999999552965164,
                -0.07052109390497208
            ],
            "type" : "VEC3"
        },
        {
            "bufferView" : 17,
            "componentType" : 5126,
            "count" : 2906,
            "type" : "VEC3"
        },
        {
            "bufferView" : 18,
            "componentType" : 5126,
            "count" : 2906,
            "type" : "VEC2"
        },
        {
            "bufferView" : 19,
            "componentType" : 5123,
            "count" : 5730,
            "type" : "SCALAR"
        },
        {
            "bufferView" : 20,
            "componentType" : 5126,
            "count" : 2882,
            "max" : [
                0.19691750407218933,
                0,
                -0.004413813352584839
            ],
            "min" : [
                0.0022679027169942856,
                -0.019999999552965164,
                -0.07062521576881409
            ],
            "type" : "VEC3"
        },
        {
            "bufferView" : 21,
            "componentType" : 5126,
            "count" : 2882,
            "type" : "VEC3"
        },
        {
            "bufferView" : 22,
            "componentType" : 5126,
            "count" : 2882,
            "type" : "VEC2"
        },
        {
            "bufferView" : 23,
            "componentType" : 5123,
            "count" : 5706,
            "type" : "SCALAR"
        },
        {
            "bufferView" : 24,
            "componentType" : 5126,
            "count" : 2934,
            "max" : [
                0.19691750407218933,
                0,
                -0.004413723945617676
            ],
            "min" : [
                0.0027808398008346558,
                -0.019999999552965164,
                -0.07014114409685135
            ],
            "type" : "VEC3"
        },
        {
            "bufferView" : 25,
            "componentType" : 5126,
            "count" : 2934,
            "type" : "VEC3"
        },
        {
            "bufferView" : 26,
            "componentType" : 5126,
            "count" : 2934,
            "type" : "VEC2"
        },
        {
            "bufferView" : 27,
            "componentType" : 5123,
            "count" : 5784,
            "type" : "SCALAR"
        }
    ],
    "bufferViews" : [
        {
            "buffer" : 0,
            "byteLength" : 34656,
            "byteOffset" : 0
        },
        {
            "buffer" : 0,
            "byteLength" : 34656,
            "byteOffset" : 34656
        },
        {
            "buffer" : 0,
            "byteLength" : 23104,
            "byteOffset" : 69312
        },
        {
            "buffer" : 0,
            "byteLength" : 11436,
            "byteOffset" : 92416
        },
        {
            "buffer" : 0,
            "byteLength" : 34212,
            "byteOffset" : 103852
        },
        {
            "buffer" : 0,
            "byteLength" : 34212,
            "byteOffset" : 138064
        },
        {
            "buffer" : 0,
            "byteLength" : 22808,
            "byteOffset" : 172276
        },
        {
            "buffer" : 0,
            "byteLength" : 11220,
            "byteOffset" : 195084
        },
        {
            "buffer" : 0,
            "byteLength" : 34464,
            "byteOffset" : 206304
        },
        {
            "buffer" : 0,
            "byteLength" : 34464,
            "byteOffset" : 240768
        },
        {
            "buffer" : 0,
            "byteLength" : 22976,
            "byteOffset" : 275232
        },
        {
            "buffer" : 0,
            "byteLength" : 11340,
            "byteOffset" : 298208
        },
        {
            "buffer" : 0,
            "byteLength" : 34440,
            "byteOffset" : 309548
        },
        {
            "buffer" : 0,
            "byteLength" : 34440,
            "byteOffset" : 343988
        },
        {
            "buffer" : 0,
            "byteLength" : 22960,
            "byteOffset" : 378428
        },
        {
            "buffer" : 0,
            "byteLength" : 11244,
            "byteOffset" : 401388
        },
        {
            "buffer" : 0,
            "byteLength" : 34872,
            "byteOffset" : 412632
        },
        {
            "buffer" : 0,
            "byteLength" : 34872,
            "byteOffset" : 447504
        },
        {
            "buffer" : 0,
            "byteLength" : 23248,
            "byteOffset" : 482376
        },
        {
            "buffer" : 0,
            "byteLength" : 11460,
            "byteOffset" : 505624
        },
        {
            "buffer" : 0,
            "byteLength" : 34584,
            "byteOffset" : 517084
        },
        {
            "buffer" : 0,
            "byteLength" : 34584,
            "byteOffset" : 551668
        },
        {
            "buffer" : 0,
            "byteLength" : 23056,
            "byteOffset" : 586252
        },
        {
            "buffer" : 0,
            "byteLength" : 11412,
            "byteOffset" : 609308
        },
        {
            "buffer" : 0,
            "byteLength" : 35208,
            "byteOffset" : 620720
        },
        {
            "buffer" : 0,
            "byteLength" : 35208,
            "byteOffset" : 655928
        },
        {
            "buffer" : 0,
            "byteLength" : 23472,
            "byteOffset" : 691136
        },
        {
            "buffer" : 0,
            "byteLength" : 11568,
            "byteOffset" : 714608
        }
    ],
    "buffers" : [
        {
            "byteLength" : 726176,
            "uri" : "data:application/octet-stream;base64,"
        }
    ]
}
