{
    "asset" : {
        "generator" : "Khronos glTF Blender I/O v1.4.40",
        "version" : "2.0"
    },
    "scene" : 0,
    "scenes" : [
        {
            "name" : "Scene",
            "nodes" : [
                0,
                1,
                2
            ]
        }
    ],
    "nodes" : [
        {
            "name" : "Light",
            "rotation" : [
                0.16907575726509094,
                0.7558803558349609,
                -0.27217137813568115,
                0.570947527885437
            ],
            "translation" : [
                4.076245307922363,
                5.903861999511719,
                -1.0054539442062378
            ]
        },
        {
            "name" : "Camera",
            "rotation" : [
                0.483536034822464,
                0.33687159419059753,
                -0.20870360732078552,
                0.7804827094078064
            ],
            "translation" : [
                7.358891487121582,
                4.958309173583984,
                6.925790786743164
            ]
        },
        {
            "mesh" : 0,
            "name" : "path56",
            "rotation" : [
                0.6427876353263855,
                0,
                0,
                0.766044557094574
            ],
            "scale" : [
                3,
                3,
                3
            ]
        }
    ],
    "materials" : [
        {
            "doubleSided" : true,
            "name" : "SVGMat.001",
            "pbrMetallicRoughness" : {
                "baseColorFactor" : [
                    0.16202940046787262,
                    0.162029430270195,
                    0.162029430270195,
                    1
                ],
                "metallicFactor" : 0,
                "roughnessFactor" : 0.4000000059604645
            }
        },
        {
            "doubleSided" : true,
            "name" : "SVGMat.002",
            "pbrMetallicRoughness" : {
                "baseColorFactor" : [
                    0.16202940046787262,
                    0.162029430270195,
                    0.162029430270195,
                    1
                ],
                "metallicFactor" : 0,
                "roughnessFactor" : 0.4000000059604645
            }
        },
        {
            "doubleSided" : true,
            "name" : "SVGMat.003",
            "pbrMetallicRoughness" : {
                "baseColorFactor" : [
                    0.16202940046787262,
                    0.162029430270195,
                    0.162029430270195,
                    1
                ],
                "metallicFactor" : 0,
                "roughnessFactor" : 0.4000000059604645
            }
        },
        {
            "doubleSided" : true,
            "name" : "SVGMat.004",
            "pbrMetallicRoughness" : {
                "baseColorFactor" : [
                    0.16202940046787262,
                    0.162029430270195,
                    0.162029430270195,
                    1
                ],
                "metallicFactor" : 0,
                "roughnessFactor" : 0.4000000059604645
            }
        },
        {
            "doubleSided" : true,
            "name" : "SVGMat.005",
            "pbrMetallicRoughness" : {
                "baseColorFactor" : [
                    0.0802198201417923,
                    0.0802198201417923,
                    0.0802198201417923,
                    1
                ],
                "metallicFactor" : 0,
                "roughnessFactor" : 0.4000000059604645
            }
        },
        {
            "doubleSided" : true,
            "name" : "SVGMat.006",
            "pbrMetallicRoughness" : {
                "baseColorFactor" : [
                    0.028426039963960648,
                    0.028426039963960648,
                    0.028426039963960648,
                    1
                ],
                "metallicFactor" : 0,
                "roughnessFactor" : 0.4000000059604645
            }
        },
        {
            "doubleSided" : true,
            "name" : "SVGMat.007",
            "pbrMetallicRoughness" : {
                "baseColorFactor" : [
                    0,
                    0,
                    0,
                    1
                ],
                "metallicFactor" : 0,
                "roughnessFactor" : 0.4000000059604645
            }
        }
    ],
    "meshes" : [
        {
            "name" : "path56",
            "primitives" : [
                {
                    "attributes" : {
                        "POSITION" : 0,
                        "NORMAL" : 1,
                        "TEXCOORD_0" : 2
                    },
                    "indices" : 3,
                    "material" : 0
                },
                {
                    "attributes" : {
                        "POSITION" : 4,
                        "NORMAL" : 5,
                        "TEXCOORD_0" : 6
                    },
                    "indices" : 7,
                    "material" : 1
                },
                {
                    "attributes" : {
                        "POSITION" : 8,
                        "NORMAL" : 9,
                        "TEXCOORD_0" : 10
                    },
                    "indices" : 11,
                    "material" : 2
                },
                {
                    "attributes" : {
                        "POSITION" : 12,
                        "NORMAL" : 13,
                        "TEXCOORD_0" : 14
                    },
                    "indices" : 15,
                    "material" : 3
                },
                {
                    "attributes" : {
                        "POSITION" : 16,
                        "NORMAL" : 17,
                        "TEXCOORD_0" : 18
                    },
                    "indices" : 19,
                    "material" : 4
                },
                {
                    "attributes" : {
                        "POSITION" : 20,
                        "NORMAL" : 21,
                        "TEXCOORD_0" : 22
                    },
                    "indices" : 23,
                    "material" : 5
                },
                {
                    "attributes" : {
                        "POSITION" : 24,
                        "NORMAL" : 25,
                        "TEXCOORD_0" : 26
                    },
                    "indices" : 27,
                    "material" : 6
                }
            ]
        }
    ],
    "accessors" : [
        {
            "bufferView" : 0,
            "componentType" : 5126,
            "count" : 1938,
            "max" : [
                0.20635536313056946,
                0,
                -7.450580596923828e-08
            ],
            "min" : [
                0.00023840181529521942,
                -0.029999999329447746,
                -0.0761934369802475
            ],
            "type" : "VEC3"
        },
        {
            "bufferView" : 1,
            "componentType" : 5126,
            "count" : 1938,
            "type" : "VEC3"
        },
        {
            "bufferView" : 2,
            "componentType" : 5126,
            "count" : 1938,
            "type" : "VEC2"
        },
        {
            "bufferView" : 3,
            "componentType" : 5123,
            "count" : 3864,
            "type" : "SCALAR"
        },
        {
            "bufferView" : 4,
            "componentType" : 5126,
            "count" : 1896,
            "max" : [
                0.20565679669380188,
                0,
                -7.450580596923828e-08
            ],
            "min" : [
                0.00023840181529521942,
                -0.029999999329447746,
                -0.07603990286588669
            ],
            "type" : "VEC3"
        },
        {
            "bufferView" : 5,
            "componentType" : 5126,
            "count" : 1896,
            "type" : "VEC3"
        },
        {
            "bufferView" : 6,
            "componentType" : 5126,
            "count" : 1896,
            "type" : "VEC2"
        },
        {
            "bufferView" : 7,
            "componentType" : 5123,
            "count" : 3768,
            "type" : "SCALAR"
        },
        {
            "bufferView" : 8,
            "componentType" : 5126,
            "count" : 1956,
            "max" : [
                0.20564934611320496,
                0,
                -4.470348358154297e-08
            ],
            "min" : [
                0.00016536936163902283,
                -0.029999999329447746,
                -0.07565823197364807
            ],
            "type" : "VEC3"
        },
        {
            "bufferView" : 9,
            "componentType" : 5126,
            "count" : 1956,
            "type" : "VEC3"
        },
        {
            "bufferView" : 10,
            "componentType" : 5126,
            "count" : 1956,
            "type" : "VEC2"
        },
        {
            "bufferView" : 11,
            "componentType" : 5123,
            "count" : 3888,
            "type" : "SCALAR"
        },
        {
            "bufferView" : 12,
            "componentType" : 5126,
            "count" : 1990,
            "max" : [
                0.20584729313850403,
                0,
                1.4901161193847656e-08
            ],
            "min" : [
                0.0001653619110584259,
                -0.029999999329447746,
                -0.07523444294929504
            ],
            "type" : "VEC3"
        },
        {
            "bufferView" : 13,
            "componentType" : 5126,
            "count" : 1990,
            "type" : "VEC3"
        },
        {
            "bufferView" : 14,
            "componentType" : 5126,
            "count" : 1990,
            "type" : "VEC2"
        },
        {
            "bufferView" : 15,
            "componentType" : 5123,
            "count" : 3960,
            "type" : "SCALAR"
        },
        {
            "bufferView" : 16,
            "componentType" : 5126,
            "count" : 2020,
            "max" : [
                0.20579813420772552,
                0,
                -4.470348358154297e-08
            ],
            "min" : [
                0.00023840181529521942,
                -0.029999999329447746,
                -0.07513710111379623
            ],
            "type" : "VEC3"
        },
        {
            "bufferView" : 17,
            "componentType" : 5126,
            "count" : 2020,
            "type" : "VEC3"
        },
        {
            "bufferView" : 18,
            "componentType" : 5126,
            "count" : 2020,
            "type" : "VEC2"
        },
        {
            "bufferView" : 19,
            "componentType" : 5123,
            "count" : 4014,
            "type" : "SCALAR"
        },
        {
            "bufferView" : 20,
            "componentType" : 5126,
            "count" : 1943,
            "max" : [
                0.2056761384010315,
                0,
                -1.4901161193847656e-08
            ],
            "min" : [
                1.862645149230957e-09,
                -0.029999999329447746,
                -0.0752553790807724
            ],
            "type" : "VEC3"
        },
        {
            "bufferView" : 21,
            "componentType" : 5126,
            "count" : 1943,
            "type" : "VEC3"
        },
        {
            "bufferView" : 22,
            "componentType" : 5126,
            "count" : 1943,
            "type" : "VEC2"
        },
        {
            "bufferView" : 23,
            "componentType" : 5123,
            "count" : 3846,
            "type" : "SCALAR"
        },
        {
            "bufferView" : 24,
            "componentType" : 5126,
            "count" : 1950,
            "max" : [
                0.2059016227722168,
                0,
                -7.450580596923828e-08
            ],
            "min" : [
                0.0008392240852117538,
                -0.029999999329447746,
                -0.07470516115427017
            ],
            "type" : "VEC3"
        },
        {
            "bufferView" : 25,
            "componentType" : 5126,
            "count" : 1950,
            "type" : "VEC3"
        },
        {
            "bufferView" : 26,
            "componentType" : 5126,
            "count" : 1950,
            "type" : "VEC2"
        },
        {
            "bufferView" : 27,
            "componentType" : 5123,
            "count" : 3882,
            "type" : "SCALAR"
        }
    ],
    "bufferViews" : [
        {
            "buffer" : 0,
            "byteLength" : 23256,
            "byteOffset" : 0
        },
        {
            "buffer" : 0,
            "byteLength" : 23256,
            "byteOffset" : 23256
        },
        {
            "buffer" : 0,
            "byteLength" : 15504,
            "byteOffset" : 46512
        },
        {
            "buffer" : 0,
            "byteLength" : 7728,
            "byteOffset" : 62016
        },
        {
            "buffer" : 0,
            "byteLength" : 22752,
            "byteOffset" : 69744
        },
        {
            "buffer" : 0,
            "byteLength" : 22752,
            "byteOffset" : 92496
        },
        {
            "buffer" : 0,
            "byteLength" : 15168,
            "byteOffset" : 115248
        },
        {
            "buffer" : 0,
            "byteLength" : 7536,
            "byteOffset" : 130416
        },
        {
            "buffer" : 0,
            "byteLength" : 23472,
            "byteOffset" : 137952
        },
        {
            "buffer" : 0,
            "byteLength" : 23472,
            "byteOffset" : 161424
        },
        {
            "buffer" : 0,
            "byteLength" : 15648,
            "byteOffset" : 184896
        },
        {
            "buffer" : 0,
            "byteLength" : 7776,
            "byteOffset" : 200544
        },
        {
            "buffer" : 0,
            "byteLength" : 23880,
            "byteOffset" : 208320
        },
        {
            "buffer" : 0,
            "byteLength" : 23880,
            "byteOffset" : 232200
        },
        {
            "buffer" : 0,
            "byteLength" : 15920,
            "byteOffset" : 256080
        },
        {
            "buffer" : 0,
            "byteLength" : 7920,
            "byteOffset" : 272000
        },
        {
            "buffer" : 0,
            "byteLength" : 24240,
            "byteOffset" : 279920
        },
        {
            "buffer" : 0,
            "byteLength" : 24240,
            "byteOffset" : 304160
        },
        {
            "buffer" : 0,
            "byteLength" : 16160,
            "byteOffset" : 328400
        },
        {
            "buffer" : 0,
            "byteLength" : 8028,
            "byteOffset" : 344560
        },
        {
            "buffer" : 0,
            "byteLength" : 23316,
            "byteOffset" : 352588
        },
        {
            "buffer" : 0,
            "byteLength" : 23316,
            "byteOffset" : 375904
        },
        {
            "buffer" : 0,
            "byteLength" : 15544,
            "byteOffset" : 399220
        },
        {
            "buffer" : 0,
            "byteLength" : 7692,
            "byteOffset" : 414764
        },
        {
            "buffer" : 0,
            "byteLength" : 23400,
            "byteOffset" : 422456
        },
        {
            "buffer" : 0,
            "byteLength" : 23400,
            "byteOffset" : 445856
        },
        {
            "buffer" : 0,
            "byteLength" : 15600,
            "byteOffset" : 469256
        },
        {
            "buffer" : 0,
            "byteLength" : 7764,
            "byteOffset" : 484856
        }
    ],
    "buffers" : [
        {
            "byteLength" : 492620,
            "uri" : "data:application/octet-stream;base64,"
        }
    ]
}
