{
    "asset" : {
        "generator" : "Khronos glTF Blender I/O v1.4.40",
        "version" : "2.0"
    },
    "scene" : 0,
    "scenes" : [
        {
            "name" : "Scene",
            "nodes" : [
                0,
                1,
                2
            ]
        }
    ],
    "nodes" : [
        {
            "name" : "Light",
            "rotation" : [
                0.16907575726509094,
                0.7558803558349609,
                -0.27217137813568115,
                0.570947527885437
            ],
            "translation" : [
                4.076245307922363,
                5.903861999511719,
                -1.0054539442062378
            ]
        },
        {
            "name" : "Camera",
            "rotation" : [
                0.483536034822464,
                0.33687159419059753,
                -0.20870360732078552,
                0.7804827094078064
            ],
            "translation" : [
                7.358891487121582,
                4.958309173583984,
                6.925790786743164
            ]
        },
        {
            "mesh" : 0,
            "name" : "path56",
            "rotation" : [
                0.7071068286895752,
                0,
                0,
                0.7071068286895752
            ],
            "scale" : [
                0.5,
                0.5,
                0.5
            ],
            "translation" : [
                -0.04999999701976776,
                -0.01899999938905239,
                0
            ]
        }
    ],
    "materials" : [
        {
            "doubleSided" : true,
            "name" : "SVGMat.001",
            "pbrMetallicRoughness" : {
                "baseColorFactor" : [
                    0.08021986484527588,
                    0.08021983504295349,
                    0.08021984994411469,
                    1
                ],
                "metallicFactor" : 0.5,
                "roughnessFactor" : 0.4000000059604645
            }
        },
        {
            "doubleSided" : true,
            "name" : "SVGMat.002",
            "pbrMetallicRoughness" : {
                "baseColorFactor" : [
                    0.08021986484527588,
                    0.08021983504295349,
                    0.08021984994411469,
                    1
                ],
                "metallicFactor" : 0.5,
                "roughnessFactor" : 0.4000000059604645
            }
        },
        {
            "doubleSided" : true,
            "name" : "SVGMat.003",
            "pbrMetallicRoughness" : {
                "baseColorFactor" : [
                    0.08021986484527588,
                    0.08021983504295349,
                    0.08021984994411469,
                    1
                ],
                "metallicFactor" : 0.5,
                "roughnessFactor" : 0.4000000059604645
            }
        },
        {
            "doubleSided" : true,
            "name" : "SVGMat.004",
            "pbrMetallicRoughness" : {
                "baseColorFactor" : [
                    0.08021986484527588,
                    0.08021983504295349,
                    0.08021984994411469,
                    1
                ],
                "metallicFactor" : 0.5,
                "roughnessFactor" : 0.4000000059604645
            }
        },
        {
            "doubleSided" : true,
            "name" : "SVGMat.005",
            "pbrMetallicRoughness" : {
                "baseColorFactor" : [
                    0.08021986484527588,
                    0.08021983504295349,
                    0.08021984994411469,
                    1
                ],
                "metallicFactor" : 0.5,
                "roughnessFactor" : 0.4000000059604645
            }
        },
        {
            "doubleSided" : true,
            "name" : "SVGMat.006",
            "pbrMetallicRoughness" : {
                "baseColorFactor" : [
                    0.028426039963960648,
                    0.028426039963960648,
                    0.028426039963960648,
                    1
                ],
                "metallicFactor" : 0.5,
                "roughnessFactor" : 0.4000000059604645
            }
        },
        {
            "doubleSided" : true,
            "name" : "SVGMat.007",
            "pbrMetallicRoughness" : {
                "baseColorFactor" : [
                    0,
                    0,
                    0,
                    1
                ],
                "metallicFactor" : 0.5,
                "roughnessFactor" : 0.4000000059604645
            }
        }
    ],
    "meshes" : [
        {
            "name" : "path56",
            "primitives" : [
                {
                    "attributes" : {
                        "POSITION" : 0,
                        "NORMAL" : 1,
                        "TEXCOORD_0" : 2
                    },
                    "indices" : 3,
                    "material" : 0
                },
                {
                    "attributes" : {
                        "POSITION" : 4,
                        "NORMAL" : 5,
                        "TEXCOORD_0" : 6
                    },
                    "indices" : 7,
                    "material" : 1
                },
                {
                    "attributes" : {
                        "POSITION" : 8,
                        "NORMAL" : 9,
                        "TEXCOORD_0" : 10
                    },
                    "indices" : 11,
                    "material" : 2
                },
                {
                    "attributes" : {
                        "POSITION" : 12,
                        "NORMAL" : 13,
                        "TEXCOORD_0" : 14
                    },
                    "indices" : 15,
                    "material" : 3
                },
                {
                    "attributes" : {
                        "POSITION" : 16,
                        "NORMAL" : 17,
                        "TEXCOORD_0" : 18
                    },
                    "indices" : 19,
                    "material" : 4
                },
                {
                    "attributes" : {
                        "POSITION" : 20,
                        "NORMAL" : 21,
                        "TEXCOORD_0" : 22
                    },
                    "indices" : 23,
                    "material" : 5
                },
                {
                    "attributes" : {
                        "POSITION" : 24,
                        "NORMAL" : 25,
                        "TEXCOORD_0" : 26
                    },
                    "indices" : 27,
                    "material" : 6
                }
            ]
        }
    ],
    "accessors" : [
        {
            "bufferView" : 0,
            "componentType" : 5126,
            "count" : 1946,
            "max" : [
                0.20635536313056946,
                0,
                -7.450580596923828e-08
            ],
            "min" : [
                0.00023840181529521942,
                -0.009999999776482582,
                -0.0761934369802475
            ],
            "type" : "VEC3"
        },
        {
            "bufferView" : 1,
            "componentType" : 5126,
            "count" : 1946,
            "type" : "VEC3"
        },
        {
            "bufferView" : 2,
            "componentType" : 5126,
            "count" : 1946,
            "type" : "VEC2"
        },
        {
            "bufferView" : 3,
            "componentType" : 5123,
            "count" : 3876,
            "type" : "SCALAR"
        },
        {
            "bufferView" : 4,
            "componentType" : 5126,
            "count" : 1874,
            "max" : [
                0.20565679669380188,
                0,
                -7.450580596923828e-08
            ],
            "min" : [
                0.00023840181529521942,
                -0.009999999776482582,
                -0.07603990286588669
            ],
            "type" : "VEC3"
        },
        {
            "bufferView" : 5,
            "componentType" : 5126,
            "count" : 1874,
            "type" : "VEC3"
        },
        {
            "bufferView" : 6,
            "componentType" : 5126,
            "count" : 1874,
            "type" : "VEC2"
        },
        {
            "bufferView" : 7,
            "componentType" : 5123,
            "count" : 3726,
            "type" : "SCALAR"
        },
        {
            "bufferView" : 8,
            "componentType" : 5126,
            "count" : 1961,
            "max" : [
                0.20564934611320496,
                0,
                -4.470348358154297e-08
            ],
            "min" : [
                0.00016536936163902283,
                -0.009999999776482582,
                -0.07565823197364807
            ],
            "type" : "VEC3"
        },
        {
            "bufferView" : 9,
            "componentType" : 5126,
            "count" : 1961,
            "type" : "VEC3"
        },
        {
            "bufferView" : 10,
            "componentType" : 5126,
            "count" : 1961,
            "type" : "VEC2"
        },
        {
            "bufferView" : 11,
            "componentType" : 5123,
            "count" : 3882,
            "type" : "SCALAR"
        },
        {
            "bufferView" : 12,
            "componentType" : 5126,
            "count" : 2016,
            "max" : [
                0.20584729313850403,
                0,
                1.4901161193847656e-08
            ],
            "min" : [
                0.0001653619110584259,
                -0.009999999776482582,
                -0.07523444294929504
            ],
            "type" : "VEC3"
        },
        {
            "bufferView" : 13,
            "componentType" : 5126,
            "count" : 2016,
            "type" : "VEC3"
        },
        {
            "bufferView" : 14,
            "componentType" : 5126,
            "count" : 2016,
            "type" : "VEC2"
        },
        {
            "bufferView" : 15,
            "componentType" : 5123,
            "count" : 4008,
            "type" : "SCALAR"
        },
        {
            "bufferView" : 16,
            "componentType" : 5126,
            "count" : 2018,
            "max" : [
                0.20579813420772552,
                0,
                -4.470348358154297e-08
            ],
            "min" : [
                0.00023840181529521942,
                -0.009999999776482582,
                -0.07513710111379623
            ],
            "type" : "VEC3"
        },
        {
            "bufferView" : 17,
            "componentType" : 5126,
            "count" : 2018,
            "type" : "VEC3"
        },
        {
            "bufferView" : 18,
            "componentType" : 5126,
            "count" : 2018,
            "type" : "VEC2"
        },
        {
            "bufferView" : 19,
            "componentType" : 5123,
            "count" : 4032,
            "type" : "SCALAR"
        },
        {
            "bufferView" : 20,
            "componentType" : 5126,
            "count" : 1922,
            "max" : [
                0.2056761384010315,
                0,
                -1.4901161193847656e-08
            ],
            "min" : [
                1.862645149230957e-09,
                -0.009999999776482582,
                -0.0752553790807724
            ],
            "type" : "VEC3"
        },
        {
            "bufferView" : 21,
            "componentType" : 5126,
            "count" : 1922,
            "type" : "VEC3"
        },
        {
            "bufferView" : 22,
            "componentType" : 5126,
            "count" : 1922,
            "type" : "VEC2"
        },
        {
            "bufferView" : 23,
            "componentType" : 5123,
            "count" : 3804,
            "type" : "SCALAR"
        },
        {
            "bufferView" : 24,
            "componentType" : 5126,
            "count" : 1964,
            "max" : [
                0.2059016227722168,
                0,
                -7.450580596923828e-08
            ],
            "min" : [
                0.0008392240852117538,
                -0.009999999776482582,
                -0.07470516115427017
            ],
            "type" : "VEC3"
        },
        {
            "bufferView" : 25,
            "componentType" : 5126,
            "count" : 1964,
            "type" : "VEC3"
        },
        {
            "bufferView" : 26,
            "componentType" : 5126,
            "count" : 1964,
            "type" : "VEC2"
        },
        {
            "bufferView" : 27,
            "componentType" : 5123,
            "count" : 3912,
            "type" : "SCALAR"
        }
    ],
    "bufferViews" : [
        {
            "buffer" : 0,
            "byteLength" : 23352,
            "byteOffset" : 0
        },
        {
            "buffer" : 0,
            "byteLength" : 23352,
            "byteOffset" : 23352
        },
        {
            "buffer" : 0,
            "byteLength" : 15568,
            "byteOffset" : 46704
        },
        {
            "buffer" : 0,
            "byteLength" : 7752,
            "byteOffset" : 62272
        },
        {
            "buffer" : 0,
            "byteLength" : 22488,
            "byteOffset" : 70024
        },
        {
            "buffer" : 0,
            "byteLength" : 22488,
            "byteOffset" : 92512
        },
        {
            "buffer" : 0,
            "byteLength" : 14992,
            "byteOffset" : 115000
        },
        {
            "buffer" : 0,
            "byteLength" : 7452,
            "byteOffset" : 129992
        },
        {
            "buffer" : 0,
            "byteLength" : 23532,
            "byteOffset" : 137444
        },
        {
            "buffer" : 0,
            "byteLength" : 23532,
            "byteOffset" : 160976
        },
        {
            "buffer" : 0,
            "byteLength" : 15688,
            "byteOffset" : 184508
        },
        {
            "buffer" : 0,
            "byteLength" : 7764,
            "byteOffset" : 200196
        },
        {
            "buffer" : 0,
            "byteLength" : 24192,
            "byteOffset" : 207960
        },
        {
            "buffer" : 0,
            "byteLength" : 24192,
            "byteOffset" : 232152
        },
        {
            "buffer" : 0,
            "byteLength" : 16128,
            "byteOffset" : 256344
        },
        {
            "buffer" : 0,
            "byteLength" : 8016,
            "byteOffset" : 272472
        },
        {
            "buffer" : 0,
            "byteLength" : 24216,
            "byteOffset" : 280488
        },
        {
            "buffer" : 0,
            "byteLength" : 24216,
            "byteOffset" : 304704
        },
        {
            "buffer" : 0,
            "byteLength" : 16144,
            "byteOffset" : 328920
        },
        {
            "buffer" : 0,
            "byteLength" : 8064,
            "byteOffset" : 345064
        },
        {
            "buffer" : 0,
            "byteLength" : 23064,
            "byteOffset" : 353128
        },
        {
            "buffer" : 0,
            "byteLength" : 23064,
            "byteOffset" : 376192
        },
        {
            "buffer" : 0,
            "byteLength" : 15376,
            "byteOffset" : 399256
        },
        {
            "buffer" : 0,
            "byteLength" : 7608,
            "byteOffset" : 414632
        },
        {
            "buffer" : 0,
            "byteLength" : 23568,
            "byteOffset" : 422240
        },
        {
            "buffer" : 0,
            "byteLength" : 23568,
            "byteOffset" : 445808
        },
        {
            "buffer" : 0,
            "byteLength" : 15712,
            "byteOffset" : 469376
        },
        {
            "buffer" : 0,
            "byteLength" : 7824,
            "byteOffset" : 485088
        }
    ],
    "buffers" : [
        {
            "byteLength" : 492912,
            "uri" : "data:application/octet-stream;base64,"
        }
    ]
}
