{
    "asset" : {
        "generator" : "Khronos glTF Blender I/O v1.4.40",
        "version" : "2.0"
    },
    "scene" : 0,
    "scenes" : [
        {
            "name" : "Scene",
            "nodes" : [
                0,
                1,
                2
            ]
        }
    ],
    "nodes" : [
        {
            "name" : "Light",
            "rotation" : [
                0.16907575726509094,
                0.7558803558349609,
                -0.27217137813568115,
                0.570947527885437
            ],
            "translation" : [
                4.076245307922363,
                5.903861999511719,
                -1.0054539442062378
            ]
        },
        {
            "name" : "Camera",
            "rotation" : [
                0.483536034822464,
                0.33687159419059753,
                -0.20870360732078552,
                0.7804827094078064
            ],
            "translation" : [
                7.358891487121582,
                4.958309173583984,
                6.925790786743164
            ]
        },
        {
            "mesh" : 0,
            "name" : "path905",
            "rotation" : [
                0.7071068286895752,
                0,
                0,
                0.7071068286895752
            ],
            "translation" : [
                -0.10749999433755875,
                -0.03999999910593033,
                0.014999999664723873
            ]
        }
    ],
    "materials" : [
        {
            "doubleSided" : true,
            "name" : "SVGMat.005",
            "pbrMetallicRoughness" : {
                "baseColorFactor" : [
                    0,
                    0.6583748459815979,
                    0,
                    1
                ],
                "metallicFactor" : 0,
                "roughnessFactor" : 0.4000000059604645
            }
        },
        {
            "doubleSided" : true,
            "name" : "SVGMat.002",
            "pbrMetallicRoughness" : {
                "baseColorFactor" : [
                    0,
                    0.6583748459815979,
                    0,
                    1
                ],
                "metallicFactor" : 0,
                "roughnessFactor" : 0.4000000059604645
            }
        },
        {
            "doubleSided" : true,
            "name" : "SVGMat.003",
            "pbrMetallicRoughness" : {
                "baseColorFactor" : [
                    0,
                    0.6583748459815979,
                    0,
                    1
                ],
                "metallicFactor" : 0,
                "roughnessFactor" : 0.4000000059604645
            }
        },
        {
            "doubleSided" : true,
            "name" : "SVGMat.004",
            "pbrMetallicRoughness" : {
                "baseColorFactor" : [
                    0,
                    0.6583748459815979,
                    0,
                    1
                ],
                "metallicFactor" : 0,
                "roughnessFactor" : 0.4000000059604645
            }
        },
        {
            "doubleSided" : true,
            "name" : "SVGMat.006",
            "pbrMetallicRoughness" : {
                "baseColorFactor" : [
                    0,
                    0.6583748459815979,
                    0,
                    1
                ],
                "metallicFactor" : 0,
                "roughnessFactor" : 0.4000000059604645
            }
        }
    ],
    "meshes" : [
        {
            "name" : "path905",
            "primitives" : [
                {
                    "attributes" : {
                        "POSITION" : 0,
                        "NORMAL" : 1,
                        "TEXCOORD_0" : 2
                    },
                    "indices" : 3,
                    "material" : 0
                },
                {
                    "attributes" : {
                        "POSITION" : 4,
                        "NORMAL" : 5,
                        "TEXCOORD_0" : 6
                    },
                    "indices" : 7,
                    "material" : 1
                },
                {
                    "attributes" : {
                        "POSITION" : 8,
                        "NORMAL" : 9,
                        "TEXCOORD_0" : 10
                    },
                    "indices" : 11,
                    "material" : 2
                },
                {
                    "attributes" : {
                        "POSITION" : 12,
                        "NORMAL" : 13,
                        "TEXCOORD_0" : 14
                    },
                    "indices" : 15,
                    "material" : 3
                },
                {
                    "attributes" : {
                        "POSITION" : 16,
                        "NORMAL" : 17,
                        "TEXCOORD_0" : 18
                    },
                    "indices" : 19,
                    "material" : 4
                }
            ]
        }
    ],
    "accessors" : [
        {
            "bufferView" : 0,
            "componentType" : 5126,
            "count" : 748,
            "max" : [
                0.17498642206192017,
                0,
                -0.0007145404815673828
            ],
            "min" : [
                0.13648879528045654,
                -0.029999999329447746,
                -0.0781981348991394
            ],
            "type" : "VEC3"
        },
        {
            "bufferView" : 1,
            "componentType" : 5126,
            "count" : 748,
            "type" : "VEC3"
        },
        {
            "bufferView" : 2,
            "componentType" : 5126,
            "count" : 748,
            "type" : "VEC2"
        },
        {
            "bufferView" : 3,
            "componentType" : 5123,
            "count" : 1512,
            "type" : "SCALAR"
        },
        {
            "bufferView" : 4,
            "componentType" : 5126,
            "count" : 1040,
            "max" : [
                0.03696897625923157,
                0,
                0
            ],
            "min" : [
                -2.9802322387695312e-08,
                -0.029999999329447746,
                -0.07998472452163696
            ],
            "type" : "VEC3"
        },
        {
            "bufferView" : 5,
            "componentType" : 5126,
            "count" : 1040,
            "type" : "VEC3"
        },
        {
            "bufferView" : 6,
            "componentType" : 5126,
            "count" : 1040,
            "type" : "VEC2"
        },
        {
            "bufferView" : 7,
            "componentType" : 5123,
            "count" : 2100,
            "type" : "SCALAR"
        },
        {
            "bufferView" : 8,
            "componentType" : 5126,
            "count" : 480,
            "max" : [
                0.08332836627960205,
                0,
                -0.0007145404815673828
            ],
            "min" : [
                0.04130539298057556,
                -0.029999999329447746,
                -0.07819763571023941
            ],
            "type" : "VEC3"
        },
        {
            "bufferView" : 9,
            "componentType" : 5126,
            "count" : 480,
            "type" : "VEC3"
        },
        {
            "bufferView" : 10,
            "componentType" : 5126,
            "count" : 480,
            "type" : "VEC2"
        },
        {
            "bufferView" : 11,
            "componentType" : 5123,
            "count" : 966,
            "type" : "SCALAR"
        },
        {
            "bufferView" : 12,
            "componentType" : 5126,
            "count" : 436,
            "max" : [
                0.1294693946838379,
                0,
                -0.0007145404815673828
            ],
            "min" : [
                0.08563697338104248,
                -0.029999999329447746,
                -0.0797804594039917
            ],
            "type" : "VEC3"
        },
        {
            "bufferView" : 13,
            "componentType" : 5126,
            "count" : 436,
            "type" : "VEC3"
        },
        {
            "bufferView" : 14,
            "componentType" : 5126,
            "count" : 436,
            "type" : "VEC2"
        },
        {
            "bufferView" : 15,
            "componentType" : 5123,
            "count" : 882,
            "type" : "SCALAR"
        },
        {
            "bufferView" : 16,
            "componentType" : 5126,
            "count" : 494,
            "max" : [
                0.2200043797492981,
                0,
                -0.0007145404815673828
            ],
            "min" : [
                0.17798137664794922,
                -0.029999999329447746,
                -0.07819763571023941
            ],
            "type" : "VEC3"
        },
        {
            "bufferView" : 17,
            "componentType" : 5126,
            "count" : 494,
            "type" : "VEC3"
        },
        {
            "bufferView" : 18,
            "componentType" : 5126,
            "count" : 494,
            "type" : "VEC2"
        },
        {
            "bufferView" : 19,
            "componentType" : 5123,
            "count" : 984,
            "type" : "SCALAR"
        }
    ],
    "bufferViews" : [
        {
            "buffer" : 0,
            "byteLength" : 8976,
            "byteOffset" : 0
        },
        {
            "buffer" : 0,
            "byteLength" : 8976,
            "byteOffset" : 8976
        },
        {
            "buffer" : 0,
            "byteLength" : 5984,
            "byteOffset" : 17952
        },
        {
            "buffer" : 0,
            "byteLength" : 3024,
            "byteOffset" : 23936
        },
        {
            "buffer" : 0,
            "byteLength" : 12480,
            "byteOffset" : 26960
        },
        {
            "buffer" : 0,
            "byteLength" : 12480,
            "byteOffset" : 39440
        },
        {
            "buffer" : 0,
            "byteLength" : 8320,
            "byteOffset" : 51920
        },
        {
            "buffer" : 0,
            "byteLength" : 4200,
            "byteOffset" : 60240
        },
        {
            "buffer" : 0,
            "byteLength" : 5760,
            "byteOffset" : 64440
        },
        {
            "buffer" : 0,
            "byteLength" : 5760,
            "byteOffset" : 70200
        },
        {
            "buffer" : 0,
            "byteLength" : 3840,
            "byteOffset" : 75960
        },
        {
            "buffer" : 0,
            "byteLength" : 1932,
            "byteOffset" : 79800
        },
        {
            "buffer" : 0,
            "byteLength" : 5232,
            "byteOffset" : 81732
        },
        {
            "buffer" : 0,
            "byteLength" : 5232,
            "byteOffset" : 86964
        },
        {
            "buffer" : 0,
            "byteLength" : 3488,
            "byteOffset" : 92196
        },
        {
            "buffer" : 0,
            "byteLength" : 1764,
            "byteOffset" : 95684
        },
        {
            "buffer" : 0,
            "byteLength" : 5928,
            "byteOffset" : 97448
        },
        {
            "buffer" : 0,
            "byteLength" : 5928,
            "byteOffset" : 103376
        },
        {
            "buffer" : 0,
            "byteLength" : 3952,
            "byteOffset" : 109304
        },
        {
            "buffer" : 0,
            "byteLength" : 1968,
            "byteOffset" : 113256
        }
    ],
    "buffers" : [
        {
            "byteLength" : 115224,
            "uri" : "data:application/octet-stream;base64,"
        }
    ]
}
