{
    "asset" : {
        "generator" : "Khronos glTF Blender I/O v1.4.40",
        "version" : "2.0"
    },
    "scene" : 0,
    "scenes" : [
        {
            "name" : "Scene",
            "nodes" : [
                0,
                1,
                2
            ]
        }
    ],
    "nodes" : [
        {
            "name" : "Light",
            "rotation" : [
                0.16907575726509094,
                0.7558803558349609,
                -0.27217137813568115,
                0.570947527885437
            ],
            "translation" : [
                4.076245307922363,
                5.903861999511719,
                -1.0054539442062378
            ]
        },
        {
            "name" : "Camera",
            "rotation" : [
                0.483536034822464,
                0.33687159419059753,
                -0.20870360732078552,
                0.7804827094078064
            ],
            "translation" : [
                7.358891487121582,
                4.958309173583984,
                6.925790786743164
            ]
        },
        {
            "mesh" : 0,
            "name" : "path80",
            "rotation" : [
                0.6755902171134949,
                0,
                0,
                0.7372773885726929
            ],
            "scale" : [
                0.5,
                0.5,
                0.5
            ]
        }
    ],
    "materials" : [
        {
            "doubleSided" : true,
            "name" : "SVGMat.001",
            "pbrMetallicRoughness" : {
                "baseColorFactor" : [
                    1,
                    0.8796225190162659,
                    0,
                    1
                ],
                "metallicFactor" : 0,
                "roughnessFactor" : 0.4000000059604645
            }
        },
        {
            "doubleSided" : true,
            "name" : "SVGMat.002",
            "pbrMetallicRoughness" : {
                "baseColorFactor" : [
                    1,
                    0.8796225190162659,
                    0,
                    1
                ],
                "metallicFactor" : 0,
                "roughnessFactor" : 0.4000000059604645
            }
        },
        {
            "doubleSided" : true,
            "name" : "SVGMat.003",
            "pbrMetallicRoughness" : {
                "baseColorFactor" : [
                    1,
                    0.8796225190162659,
                    0,
                    1
                ],
                "metallicFactor" : 0,
                "roughnessFactor" : 0.4000000059604645
            }
        },
        {
            "doubleSided" : true,
            "name" : "SVGMat.004",
            "pbrMetallicRoughness" : {
                "baseColorFactor" : [
                    1,
                    0.8796225190162659,
                    0,
                    1
                ],
                "metallicFactor" : 0,
                "roughnessFactor" : 0.4000000059604645
            }
        },
        {
            "doubleSided" : true,
            "name" : "SVGMat.005",
            "pbrMetallicRoughness" : {
                "baseColorFactor" : [
                    1,
                    0.8796225190162659,
                    0,
                    1
                ],
                "metallicFactor" : 0,
                "roughnessFactor" : 0.4000000059604645
            }
        },
        {
            "doubleSided" : true,
            "name" : "SVGMat.006",
            "pbrMetallicRoughness" : {
                "baseColorFactor" : [
                    1,
                    0.8796225190162659,
                    0,
                    1
                ],
                "metallicFactor" : 0,
                "roughnessFactor" : 0.4000000059604645
            }
        },
        {
            "doubleSided" : true,
            "name" : "SVGMat.007",
            "pbrMetallicRoughness" : {
                "baseColorFactor" : [
                    1,
                    0.8796225190162659,
                    0,
                    1
                ],
                "metallicFactor" : 0,
                "roughnessFactor" : 0.4000000059604645
            }
        }
    ],
    "meshes" : [
        {
            "name" : "path80",
            "primitives" : [
                {
                    "attributes" : {
                        "POSITION" : 0,
                        "NORMAL" : 1,
                        "TEXCOORD_0" : 2
                    },
                    "indices" : 3,
                    "material" : 0
                },
                {
                    "attributes" : {
                        "POSITION" : 4,
                        "NORMAL" : 5,
                        "TEXCOORD_0" : 6
                    },
                    "indices" : 7,
                    "material" : 1
                },
                {
                    "attributes" : {
                        "POSITION" : 8,
                        "NORMAL" : 9,
                        "TEXCOORD_0" : 10
                    },
                    "indices" : 11,
                    "material" : 2
                },
                {
                    "attributes" : {
                        "POSITION" : 12,
                        "NORMAL" : 13,
                        "TEXCOORD_0" : 14
                    },
                    "indices" : 15,
                    "material" : 3
                },
                {
                    "attributes" : {
                        "POSITION" : 16,
                        "NORMAL" : 17,
                        "TEXCOORD_0" : 18
                    },
                    "indices" : 19,
                    "material" : 4
                },
                {
                    "attributes" : {
                        "POSITION" : 20,
                        "NORMAL" : 21,
                        "TEXCOORD_0" : 22
                    },
                    "indices" : 23,
                    "material" : 5
                },
                {
                    "attributes" : {
                        "POSITION" : 24,
                        "NORMAL" : 25,
                        "TEXCOORD_0" : 26
                    },
                    "indices" : 27,
                    "material" : 6
                }
            ]
        }
    ],
    "accessors" : [
        {
            "bufferView" : 0,
            "componentType" : 5126,
            "count" : 2174,
            "max" : [
                0.17422229051589966,
                0,
                0
            ],
            "min" : [
                0,
                -0.029999999329447746,
                -0.0472552552819252
            ],
            "type" : "VEC3"
        },
        {
            "bufferView" : 1,
            "componentType" : 5126,
            "count" : 2174,
            "type" : "VEC3"
        },
        {
            "bufferView" : 2,
            "componentType" : 5126,
            "count" : 2174,
            "type" : "VEC2"
        },
        {
            "bufferView" : 3,
            "componentType" : 5123,
            "count" : 4308,
            "type" : "SCALAR"
        },
        {
            "bufferView" : 4,
            "componentType" : 5126,
            "count" : 2118,
            "max" : [
                0.17422178387641907,
                0,
                -5.960464477539063e-08
            ],
            "min" : [
                0.0005309488624334335,
                -0.029999999329447746,
                -0.0472552552819252
            ],
            "type" : "VEC3"
        },
        {
            "bufferView" : 5,
            "componentType" : 5126,
            "count" : 2118,
            "type" : "VEC3"
        },
        {
            "bufferView" : 6,
            "componentType" : 5126,
            "count" : 2118,
            "type" : "VEC2"
        },
        {
            "bufferView" : 7,
            "componentType" : 5123,
            "count" : 4206,
            "type" : "SCALAR"
        },
        {
            "bufferView" : 8,
            "componentType" : 5126,
            "count" : 2056,
            "max" : [
                0.1745620220899582,
                0,
                -5.960464477539063e-08
            ],
            "min" : [
                0.0005662105977535248,
                -0.029999999329447746,
                -0.04714033752679825
            ],
            "type" : "VEC3"
        },
        {
            "bufferView" : 9,
            "componentType" : 5126,
            "count" : 2056,
            "type" : "VEC3"
        },
        {
            "bufferView" : 10,
            "componentType" : 5126,
            "count" : 2056,
            "type" : "VEC2"
        },
        {
            "bufferView" : 11,
            "componentType" : 5123,
            "count" : 4098,
            "type" : "SCALAR"
        },
        {
            "bufferView" : 12,
            "componentType" : 5126,
            "count" : 2072,
            "max" : [
                0.17462413012981415,
                0,
                -5.960464477539063e-08
            ],
            "min" : [
                0.0005918275564908981,
                -0.029999999329447746,
                -0.04714033752679825
            ],
            "type" : "VEC3"
        },
        {
            "bufferView" : 13,
            "componentType" : 5126,
            "count" : 2072,
            "type" : "VEC3"
        },
        {
            "bufferView" : 14,
            "componentType" : 5126,
            "count" : 2072,
            "type" : "VEC2"
        },
        {
            "bufferView" : 15,
            "componentType" : 5123,
            "count" : 4152,
            "type" : "SCALAR"
        },
        {
            "bufferView" : 16,
            "componentType" : 5126,
            "count" : 2117,
            "max" : [
                0.17462413012981415,
                0,
                -5.960464477539063e-08
            ],
            "min" : [
                0.0005903914570808411,
                -0.029999999329447746,
                -0.04714033752679825
            ],
            "type" : "VEC3"
        },
        {
            "bufferView" : 17,
            "componentType" : 5126,
            "count" : 2117,
            "type" : "VEC3"
        },
        {
            "bufferView" : 18,
            "componentType" : 5126,
            "count" : 2117,
            "type" : "VEC2"
        },
        {
            "bufferView" : 19,
            "componentType" : 5123,
            "count" : 4230,
            "type" : "SCALAR"
        },
        {
            "bufferView" : 20,
            "componentType" : 5126,
            "count" : 2170,
            "max" : [
                0.17462413012981415,
                0,
                -7.599592208862305e-07
            ],
            "min" : [
                0.0008759088814258575,
                -0.029999999329447746,
                -0.046969540417194366
            ],
            "type" : "VEC3"
        },
        {
            "bufferView" : 21,
            "componentType" : 5126,
            "count" : 2170,
            "type" : "VEC3"
        },
        {
            "bufferView" : 22,
            "componentType" : 5126,
            "count" : 2170,
            "type" : "VEC2"
        },
        {
            "bufferView" : 23,
            "componentType" : 5123,
            "count" : 4290,
            "type" : "SCALAR"
        },
        {
            "bufferView" : 24,
            "componentType" : 5126,
            "count" : 2094,
            "max" : [
                0.17462413012981415,
                0,
                -1.043081283569336e-07
            ],
            "min" : [
                0.0008759927004575729,
                -0.029999999329447746,
                -0.046991847455501556
            ],
            "type" : "VEC3"
        },
        {
            "bufferView" : 25,
            "componentType" : 5126,
            "count" : 2094,
            "type" : "VEC3"
        },
        {
            "bufferView" : 26,
            "componentType" : 5126,
            "count" : 2094,
            "type" : "VEC2"
        },
        {
            "bufferView" : 27,
            "componentType" : 5123,
            "count" : 4188,
            "type" : "SCALAR"
        }
    ],
    "bufferViews" : [
        {
            "buffer" : 0,
            "byteLength" : 26088,
            "byteOffset" : 0
        },
        {
            "buffer" : 0,
            "byteLength" : 26088,
            "byteOffset" : 26088
        },
        {
            "buffer" : 0,
            "byteLength" : 17392,
            "byteOffset" : 52176
        },
        {
            "buffer" : 0,
            "byteLength" : 8616,
            "byteOffset" : 69568
        },
        {
            "buffer" : 0,
            "byteLength" : 25416,
            "byteOffset" : 78184
        },
        {
            "buffer" : 0,
            "byteLength" : 25416,
            "byteOffset" : 103600
        },
        {
            "buffer" : 0,
            "byteLength" : 16944,
            "byteOffset" : 129016
        },
        {
            "buffer" : 0,
            "byteLength" : 8412,
            "byteOffset" : 145960
        },
        {
            "buffer" : 0,
            "byteLength" : 24672,
            "byteOffset" : 154372
        },
        {
            "buffer" : 0,
            "byteLength" : 24672,
            "byteOffset" : 179044
        },
        {
            "buffer" : 0,
            "byteLength" : 16448,
            "byteOffset" : 203716
        },
        {
            "buffer" : 0,
            "byteLength" : 8196,
            "byteOffset" : 220164
        },
        {
            "buffer" : 0,
            "byteLength" : 24864,
            "byteOffset" : 228360
        },
        {
            "buffer" : 0,
            "byteLength" : 24864,
            "byteOffset" : 253224
        },
        {
            "buffer" : 0,
            "byteLength" : 16576,
            "byteOffset" : 278088
        },
        {
            "buffer" : 0,
            "byteLength" : 8304,
            "byteOffset" : 294664
        },
        {
            "buffer" : 0,
            "byteLength" : 25404,
            "byteOffset" : 302968
        },
        {
            "buffer" : 0,
            "byteLength" : 25404,
            "byteOffset" : 328372
        },
        {
            "buffer" : 0,
            "byteLength" : 16936,
            "byteOffset" : 353776
        },
        {
            "buffer" : 0,
            "byteLength" : 8460,
            "byteOffset" : 370712
        },
        {
            "buffer" : 0,
            "byteLength" : 26040,
            "byteOffset" : 379172
        },
        {
            "buffer" : 0,
            "byteLength" : 26040,
            "byteOffset" : 405212
        },
        {
            "buffer" : 0,
            "byteLength" : 17360,
            "byteOffset" : 431252
        },
        {
            "buffer" : 0,
            "byteLength" : 8580,
            "byteOffset" : 448612
        },
        {
            "buffer" : 0,
            "byteLength" : 25128,
            "byteOffset" : 457192
        },
        {
            "buffer" : 0,
            "byteLength" : 25128,
            "byteOffset" : 482320
        },
        {
            "buffer" : 0,
            "byteLength" : 16752,
            "byteOffset" : 507448
        },
        {
            "buffer" : 0,
            "byteLength" : 8376,
            "byteOffset" : 524200
        }
    ],
    "buffers" : [
        {
            "byteLength" : 532576,
            "uri" : "data:application/octet-stream;base64,"
        }
    ]
}
