{
    "asset" : {
        "generator" : "Khronos glTF Blender I/O v1.4.40",
        "version" : "2.0"
    },
    "scene" : 0,
    "scenes" : [
        {
            "name" : "Scene",
            "nodes" : [
                0,
                1,
                2
            ]
        }
    ],
    "nodes" : [
        {
            "name" : "Light",
            "rotation" : [
                0.16907575726509094,
                0.7558803558349609,
                -0.27217137813568115,
                0.570947527885437
            ],
            "translation" : [
                4.076245307922363,
                5.903861999511719,
                -1.0054539442062378
            ]
        },
        {
            "name" : "Camera",
            "rotation" : [
                0.483536034822464,
                0.33687159419059753,
                -0.20870360732078552,
                0.7804827094078064
            ],
            "translation" : [
                7.358891487121582,
                4.958309173583984,
                6.925790786743164
            ]
        },
        {
            "mesh" : 0,
            "name" : "Curve.001",
            "rotation" : [
                0.7071068286895752,
                0,
                0,
                0.7071068286895752
            ],
            "scale" : [
                0.5,
                1,
                0.5
            ]
        }
    ],
    "materials" : [
        {
            "doubleSided" : true,
            "name" : "SVGMat.002",
            "pbrMetallicRoughness" : {
                "baseColorFactor" : [
                    0.14702726900577545,
                    0.2788942754268646,
                    1,
                    1
                ],
                "metallicFactor" : 0,
                "roughnessFactor" : 0.4000000059604645
            }
        },
        {
            "doubleSided" : true,
            "name" : "SVGMat.001",
            "pbrMetallicRoughness" : {
                "baseColorFactor" : [
                    0.03310476616024971,
                    0.13286831974983215,
                    1,
                    1
                ],
                "metallicFactor" : 0,
                "roughnessFactor" : 0.4000000059604645
            }
        },
        {
            "doubleSided" : true,
            "name" : "SVGMat.003",
            "pbrMetallicRoughness" : {
                "baseColorFactor" : [
                    0.3613067865371704,
                    0.48514994978904724,
                    1,
                    1
                ],
                "metallicFactor" : 0,
                "roughnessFactor" : 0.4000000059604645
            }
        },
        {
            "doubleSided" : true,
            "name" : "SVGMat.004",
            "pbrMetallicRoughness" : {
                "baseColorFactor" : [
                    0.9215818643569946,
                    0.9386857151985168,
                    1,
                    1
                ],
                "metallicFactor" : 0,
                "roughnessFactor" : 0.4000000059604645
            }
        }
    ],
    "meshes" : [
        {
            "name" : "Curve.001",
            "primitives" : [
                {
                    "attributes" : {
                        "POSITION" : 0,
                        "NORMAL" : 1,
                        "TEXCOORD_0" : 2
                    },
                    "indices" : 3,
                    "material" : 0
                },
                {
                    "attributes" : {
                        "POSITION" : 4,
                        "NORMAL" : 5,
                        "TEXCOORD_0" : 6
                    },
                    "indices" : 7,
                    "material" : 1
                },
                {
                    "attributes" : {
                        "POSITION" : 8,
                        "NORMAL" : 9,
                        "TEXCOORD_0" : 10
                    },
                    "indices" : 11,
                    "material" : 2
                },
                {
                    "attributes" : {
                        "POSITION" : 12,
                        "NORMAL" : 13,
                        "TEXCOORD_0" : 14
                    },
                    "indices" : 15,
                    "material" : 3
                }
            ]
        }
    ],
    "accessors" : [
        {
            "bufferView" : 0,
            "componentType" : 5126,
            "count" : 17369,
            "max" : [
                0.27258801460266113,
                0,
                -0.05218132212758064
            ],
            "min" : [
                0.2089945673942566,
                -0.009999999776482582,
                -0.05911429226398468
            ],
            "type" : "VEC3"
        },
        {
            "bufferView" : 1,
            "componentType" : 5126,
            "count" : 17369,
            "type" : "VEC3"
        },
        {
            "bufferView" : 2,
            "componentType" : 5126,
            "count" : 17369,
            "type" : "VEC2"
        },
        {
            "bufferView" : 3,
            "componentType" : 5123,
            "count" : 25956,
            "type" : "SCALAR"
        },
        {
            "bufferView" : 4,
            "componentType" : 5126,
            "count" : 29202,
            "max" : [
                0.3360944390296936,
                -0.0007928484701551497,
                -0.04524768143892288
            ],
            "min" : [
                0.0032456228509545326,
                -0.012814681977033615,
                -0.16134007275104523
            ],
            "type" : "VEC3"
        },
        {
            "bufferView" : 5,
            "componentType" : 5126,
            "count" : 29202,
            "type" : "VEC3"
        },
        {
            "bufferView" : 6,
            "componentType" : 5126,
            "count" : 29202,
            "type" : "VEC2"
        },
        {
            "bufferView" : 7,
            "componentType" : 5123,
            "count" : 35193,
            "type" : "SCALAR"
        },
        {
            "bufferView" : 8,
            "componentType" : 5126,
            "count" : 17251,
            "max" : [
                0.2726089358329773,
                0,
                -0.05217735096812248
            ],
            "min" : [
                0.2089945673942566,
                -0.009999999776482582,
                -0.0590190626680851
            ],
            "type" : "VEC3"
        },
        {
            "bufferView" : 9,
            "componentType" : 5126,
            "count" : 17251,
            "type" : "VEC3"
        },
        {
            "bufferView" : 10,
            "componentType" : 5126,
            "count" : 17251,
            "type" : "VEC2"
        },
        {
            "bufferView" : 11,
            "componentType" : 5123,
            "count" : 25824,
            "type" : "SCALAR"
        },
        {
            "bufferView" : 12,
            "componentType" : 5126,
            "count" : 13181,
            "max" : [
                0.2726089358329773,
                0,
                -0.052187494933605194
            ],
            "min" : [
                0.20890168845653534,
                -0.009999999776482582,
                -0.0590190626680851
            ],
            "type" : "VEC3"
        },
        {
            "bufferView" : 13,
            "componentType" : 5126,
            "count" : 13181,
            "type" : "VEC3"
        },
        {
            "bufferView" : 14,
            "componentType" : 5126,
            "count" : 13181,
            "type" : "VEC2"
        },
        {
            "bufferView" : 15,
            "componentType" : 5123,
            "count" : 20304,
            "type" : "SCALAR"
        }
    ],
    "bufferViews" : [
        {
            "buffer" : 0,
            "byteLength" : 208428,
            "byteOffset" : 0
        },
        {
            "buffer" : 0,
            "byteLength" : 208428,
            "byteOffset" : 208428
        },
        {
            "buffer" : 0,
            "byteLength" : 138952,
            "byteOffset" : 416856
        },
        {
            "buffer" : 0,
            "byteLength" : 51912,
            "byteOffset" : 555808
        },
        {
            "buffer" : 0,
            "byteLength" : 350424,
            "byteOffset" : 607720
        },
        {
            "buffer" : 0,
            "byteLength" : 350424,
            "byteOffset" : 958144
        },
        {
            "buffer" : 0,
            "byteLength" : 233616,
            "byteOffset" : 1308568
        },
        {
            "buffer" : 0,
            "byteLength" : 70386,
            "byteOffset" : 1542184
        },
        {
            "buffer" : 0,
            "byteLength" : 207012,
            "byteOffset" : 1612572
        },
        {
            "buffer" : 0,
            "byteLength" : 207012,
            "byteOffset" : 1819584
        },
        {
            "buffer" : 0,
            "byteLength" : 138008,
            "byteOffset" : 2026596
        },
        {
            "buffer" : 0,
            "byteLength" : 51648,
            "byteOffset" : 2164604
        },
        {
            "buffer" : 0,
            "byteLength" : 158172,
            "byteOffset" : 2216252
        },
        {
            "buffer" : 0,
            "byteLength" : 158172,
            "byteOffset" : 2374424
        },
        {
            "buffer" : 0,
            "byteLength" : 105448,
            "byteOffset" : 2532596
        },
        {
            "buffer" : 0,
            "byteLength" : 40608,
            "byteOffset" : 2638044
        }
    ],
    "buffers" : [
        {
            "byteLength" : 2678652,
            "uri" : "data:application/octet-stream;base64,"
        }
    ]
}
